<?xml version="1.0" standalone="no"?>
<!DOCTYPE svg PUBLIC "-//W3C//DTD SVG 20010904//EN"
 "http://www.w3.org/TR/2001/REC-SVG-20010904/DTD/svg10.dtd">
<svg version="1.0" xmlns="http://www.w3.org/2000/svg"
 width="1024.000000pt" height="1024.000000pt" viewBox="0 0 900.000000 900.000000"
 preserveAspectRatio="xMidYMid meet">

<g transform="translate(0.000000,1024.000000) scale(0.100000,-0.100000)"
fill="#fff" stroke="none">
<path d="M3605 8190 c-395 -7 -415 -9 -605 -75 -193 -67 -318 -145 -473 -294
-185 -179 -305 -388 -370 -641 -21 -85 -21 -85 -25 -1690 -2 -1083 0 -1641 8
-1717 30 -317 209 -661 448 -859 144 -119 374 -233 572 -282 l105 -26 660 -5
c363 -3 894 -3 1180 0 583 6 554 3 771 88 230 90 366 186 514 362 48 57 140
184 140 193 0 3 17 34 38 68 49 82 128 286 143 374 10 53 12 427 10 1649 -3
1822 4 1688 -96 1890 -66 135 -101 173 -456 512 -322 308 -355 335 -454 383
-154 75 -119 73 -980 75 -423 1 -932 -1 -1130 -5z m1934 -406 c63 -34 124 -85
266 -223 61 -59 174 -164 252 -234 153 -138 189 -185 228 -300 50 -150 49
-112 49 -1742 l1 -1530 -28 -88 c-53 -171 -160 -352 -266 -450 -113 -104 -293
-194 -446 -222 -81 -14 -203 -16 -1165 -12 -1048 3 -1077 4 -1165 24 -208 48
-328 107 -444 218 -130 125 -201 244 -256 431 -43 143 -47 339 -42 1934 5
1390 6 1438 25 1530 70 329 324 577 678 662 115 27 428 34 1491 31 l772 -1 50
-28z"/>
<path d="M3154 6848 c-63 -44 -86 -88 -81 -155 5 -65 43 -125 97 -153 39 -20
55 -20 1262 -20 1145 0 1225 1 1257 18 77 39 126 144 103 221 -16 50 -62 97
-110 111 -24 6 -451 10 -1258 10 l-1222 0 -48 -32z"/>
<path d="M3165 6142 c-83 -53 -117 -143 -84 -229 16 -42 69 -92 109 -103 48
-12 2447 -11 2480 2 14 5 38 21 53 36 91 86 88 218 -6 280 l-41 27 -1240 3
c-1203 2 -1242 2 -1271 -16z"/>
<path d="M3154 5410 c-39 -22 -57 -41 -74 -76 -21 -42 -22 -51 -11 -99 14 -63
67 -130 111 -140 16 -3 582 -7 1258 -8 l1228 -2 41 27 c58 38 98 121 89 183
-9 55 -46 102 -101 126 -39 17 -108 18 -1265 19 l-1225 0 -51 -30z"/>
<path d="M3146 4700 c-47 -30 -86 -96 -86 -146 0 -44 45 -126 82 -151 l33 -21
1251 -4 1251 -3 37 29 c53 40 90 122 81 177 -9 50 -63 114 -108 128 -20 6
-501 11 -1265 14 l-1233 4 -43 -27z"/>
<path d="M3327 4046 c-58 -16 -142 -73 -181 -122 -70 -88 -92 -219 -57 -334
19 -62 31 -81 79 -129 72 -72 112 -90 226 -103 81 -10 99 -9 150 7 84 26 154
94 207 198 39 78 40 86 37 158 -6 140 -92 262 -218 310 -69 26 -180 33 -243
15z m190 -288 c21 -19 24 -30 20 -66 -10 -93 -93 -123 -161 -58 -54 50 -49 97
14 140 33 23 94 15 127 -16z"/>
<path d="M4398 3847 c-51 -12 -108 -75 -108 -121 0 -40 34 -92 80 -124 l34
-23 615 6 c339 4 625 8 637 10 32 7 73 53 84 96 14 51 -10 111 -55 139 -32 20
-49 21 -642 23 -334 2 -625 -1 -645 -6z"/>
<path d="M7536 7974 c-81 -19 -168 -68 -217 -121 -76 -82 -127 -224 -129 -355
l0 -28 514 2 c282 0 519 -3 525 -7 14 -8 6 142 -11 210 -35 143 -176 271 -336
304 -73 15 -275 12 -346 -5z"/>
<path d="M7187 7273 c-9 -8 -9 -206 -1 -227 6 -15 60 -16 570 -10 517 6 564 5
570 -10 4 -9 3 -271 -1 -581 l-7 -565 -34 0 c-24 0 -37 6 -44 21 -9 15 -8 139
1 475 7 250 10 456 8 458 -2 3 -242 2 -532 -1 l-527 -6 0 -1293 c0 -1272 0
-1293 20 -1304 13 -7 187 -9 522 -8 l503 3 1 640 c0 445 4 664 13 720 23 155
23 155 73 105 16 -17 41 -33 54 -36 36 -9 109 14 138 45 56 58 56 58 56 745 0
409 -4 644 -11 669 -20 74 -110 147 -182 147 l-34 0 -13 -90 -13 -90 -33 0
-32 0 -7 88 c-4 48 -12 93 -17 100 -8 9 -125 12 -523 12 -281 0 -515 -3 -518
-7z"/>
<path d="M7176 3983 c2 -27 5 -91 7 -143 4 -79 10 -111 41 -191 20 -53 36
-100 36 -103 0 -19 155 -409 227 -571 106 -238 149 -321 181 -345 55 -44 106
-14 147 87 62 151 97 230 117 268 12 22 36 80 54 130 18 49 53 140 79 200 26
61 61 153 80 205 18 52 48 127 66 165 33 69 34 72 33 205 l-1 135 -535 3 -535
2 3 -47z m777 -189 c13 -5 2 -44 -59 -225 -41 -121 -74 -227 -74 -235 0 -17 0
-17 -84 4 -28 8 -50 7 -84 -3 -47 -15 -61 -9 -62 23 0 7 -13 45 -29 85 -16 39
-50 134 -74 209 l-45 138 242 3 c132 1 244 3 248 5 3 1 13 -1 21 -4z"/>
</g>
</svg>
